<svg id="Layer_1" data-name="Layer 1" xmlns="http://www.w3.org/2000/svg" viewBox="0 0 305.13 300.85">
<defs>
<style>.cls-1{fill:#000;} .white{fill:#fff}</style>
</defs>
<title>aParkPlace</title>

<path class="cls-1" d="M287,192.78l-13.86-18.59h11c-5.19-6.92-9.95-13.25-15.27-20.33H279.7c-7.3-9.48-14.21-18.46-21.42-27.81-8,9.42-15.62,18.48-23.92,28.28h12l-16.14,20h11.28l-15,18.61h26.76c0,4.61,0,8.9,0,13.19,0,3.87,1.89,6.19,4.92,6.26s5.12-2.34,5.15-6.39c0-4.28,0-8.57,0-13.24Z" transform="translate(-103.24 -105.24)"/>

<path class="cls-1" d="M181.24,221.66c0,4.48,0,8.64,0,12.81,0,4.36,1.91,6.82,5.15,6.74s4.9-2.44,4.92-6.63,0-8.53,0-13.18h23.54l-13.8-18.46h11L197,182.78h10.79l-21.51-27.93L162.46,183h11.93L158.2,203.18h11.19l-14.78,18.48Z" transform="translate(-103.24 -105.24)"/>

<path class="cls-1" d="M360.86,217.43a6.64,6.64,0,0,1,.84.64c6.68,6.84,15.14,8.88,24.28,8.73,1.13,0,2.23-1.56,3.34-2.4-1-1.07-1.93-2.42-3.18-3.11-.94-.51-2.35-.1-3.54-.23-8.58-.95-16.23-3.34-20-12.29-.38-.91-2.27-2.05-3-1.78a4.87,4.87,0,0,0-2.47,3c-1.39,5.31-4.4,7.52-10.51,7.57-4.76,0-10.07-2.7-10.27-7.52,0-1.12-1.72-2.17-2.65-3.26-1,1.1-2.59,2.05-2.94,3.34-1.42,5.11-4.62,7.49-10.72,7.42-5.89-.08-8.89-2.46-10.13-7.59-.28-1.17-1.45-2.76-2.44-2.94s-2.29,1.14-3.14,2.1c-1.8,2-3.06,4.62-5.11,6.28-5.12,4.13-11.27,5.65-17.79,5.75-2.22,0-4.37.51-4.21,3.21.14,2.52,2.27,2.61,4.33,2.56,9.44-.2,17.79-3.17,24.61-9.76,9,8,17.79,8.31,27.36,1.1C340.86,224.72,352.3,225.75,360.86,217.43Z" transform="translate(-103.24 -105.24)"/>

<path class="white" d="M258.09,396.07a179.32,179.32,0,0,0,54.29-10.94c28.75-10.74,52.32-27.94,67.86-55,9.79-17,14.85-35.54,16.75-54.94,2.21-22.5,1.07-44.82-5.27-66.66-11.08-38.18-36-64-72-79.49a166.81,166.81,0,0,0-57.44-13.55c-18.8-1-37,3.16-54.65,9.15-21,7.1-39.73,18-55,34.2-18,19-27.82,42-31.67,67.62A208,208,0,0,0,118.8,253a21.86,21.86,0,0,0,2.86,10.82c10.61,18.58,27.34,28.09,48.14,30.58,7.08.85,14.34.39,21.51.18,3.17-.09,4.58,1.26,5.45,4a83.82,83.82,0,0,1,2.86,38.39c-.9,6-2.72,11.9-3.92,17.88a15.63,15.63,0,0,1-11.28,12.4,85.27,85.27,0,0,1-19.58,4.06c-17.23,1.11-34.2-1.56-50.95-5.49A6.36,6.36,0,0,1,110,362a201.43,201.43,0,0,1-6-69.17c.85-10.6,3.28-21.07,4.4-31.66.81-7.61.31-15.35,1-23,2.87-34.43,14.34-65.19,39.47-89.82,19.52-19.13,43.19-30.93,69.5-37.26a217.74,217.74,0,0,1,36.51-5.64c15.4-1,30.54,2.24,45.41,6.26,19.73,5.32,38.14,13.54,54.57,25.85a125,125,0,0,1,46.52,67.88c9.37,33.43,9.53,67.14-.06,100.51-12.06,41.94-39.81,69.93-79.7,86.42a185.25,185.25,0,0,1-61.82,13.71c-5.4.27-6.6-1-7.15-6.49a12,12,0,0,0-1.23-3.7q-22.56-50.14-45.17-100.26c-8.7-19.3-1.44-47.52,15.06-58.33,7.61-5,16.17-7,25.11-7.87A78.7,78.7,0,0,1,277,232.13c18.64,5.66,29.2,19.61,30.17,39.75a59.27,59.27,0,0,1-5.32,28.63c-14.2,30.25-27.93,60.73-41.83,91.12C259.39,392.92,258.87,394.23,258.09,396.07Zm35.77-120.2c-.06-.84-.14-2.4-.29-3.95a16,16,0,0,0-.43-2.47c-3.6-14.36-13-23.35-26.9-27.17-14.7-4-28.22-.84-39,10.17-13.55,13.81-13.31,34.5,0,48.17a39.3,39.3,0,0,0,24.08,11.63C273.55,315,293.61,298.21,293.86,275.87ZM141.19,328.53c-7.25,6.36-12.92,13.49-16,22.45-.81,2.35-2.21,3.93-4.79,3s-3-3-2-5.31c1.51-3.39,2.72-7,4.81-10,3.83-5.47,8.21-10.54,12.61-16.1a123,123,0,0,1-23.19-42.25,121.28,121.28,0,0,0-1.58,13,210.15,210.15,0,0,0,5,63.59,3.9,3.9,0,0,0,2.33,2.54c17.54,3.69,35.2,6.41,53.18,4.08,12.66-1.63,15.84-4.49,18.87-16.41,3.51-13.8,4.18-27.7.88-41.67-.47-2-.76-4.31-3.81-2.7.35,3.9-.16,4.66-3.78,5.65-2.54.69-5.11,1.29-7.64,2.05A99.85,99.85,0,0,0,149,322.68c1.54,1.24,2.71,2.25,4,3.17q12.42,9.15,24.89,18.28c3.46,2.53,4.36,5.21,2.57,7.86s-4.48,2.81-8.15.56C161,345.73,150.49,338.09,141.19,328.53Zm-17.45-49.32c1.48,10,13.84,31.92,20.7,37.3,5.2-2.65,10.2-5.48,15.42-7.8s10.4-4,16.57-6.32C155.56,300.92,137.94,294.34,123.74,279.21Z" transform="translate(-103.24 -105.24)"/>

<path class="white" d="M287,192.78H263.32c0,4.67,0,9,0,13.24,0,4-2,6.47-5.15,6.39s-4.89-2.39-4.92-6.26c0-4.29,0-8.58,0-13.19H226.48l15-18.61H230.18l16.14-20h-12c8.3-9.8,16-18.86,23.92-28.28,7.21,9.35,14.12,18.33,21.42,27.81H268.88c5.32,7.08,10.08,13.41,15.27,20.33h-11Z" transform="translate(-103.24 -105.24)"/>

<path class="white" d="M181.24,221.66H154.61l14.78-18.48H158.2L174.39,183H162.46l23.82-28.17,21.51,27.93H197l15.09,20.16h-11l13.8,18.46H191.32c0,4.65,0,8.92,0,13.18s-1.79,6.55-4.92,6.63-5.14-2.38-5.15-6.74C181.23,230.3,181.24,226.14,181.24,221.66Z" transform="translate(-103.24 -105.24)"/>

<path class="white" d="M360.86,217.43c-8.56,8.32-20,7.29-27.26.83-9.57,7.21-18.4,6.91-27.36-1.1-6.82,6.59-15.17,9.56-24.61,9.76-2.06.05-4.19,0-4.33-2.56-.16-2.7,2-3.18,4.21-3.21,6.52-.1,12.67-1.62,17.79-5.75,2.05-1.66,3.31-4.26,5.11-6.28.85-1,2.24-2.27,3.14-2.1s2.16,1.77,2.44,2.94c1.24,5.13,4.24,7.51,10.13,7.59,6.1.07,9.3-2.31,10.72-7.42.35-1.29,1.92-2.24,2.94-3.34.93,1.09,2.61,2.14,2.65,3.26.2,4.82,5.51,7.56,10.27,7.52,6.11,0,9.12-2.26,10.51-7.57a4.87,4.87,0,0,1,2.47-3c.7-.27,2.59.87,3,1.78,3.72,8.95,11.37,11.34,20,12.29,1.19.13,2.6-.28,3.54.23,1.25.69,2.14,2,3.18,3.11-1.11.84-2.21,2.38-3.34,2.4-9.14.15-17.6-1.89-24.28-8.73A6.64,6.64,0,0,0,360.86,217.43Z" transform="translate(-103.24 -105.24)"/>

<path class="cls-1" d="M141.19,328.53c9.3,9.56,19.84,17.2,31,24,3.67,2.25,6.3,2.17,8.15-.56s.89-5.33-2.57-7.86Q165.33,335,152.9,325.85c-1.24-.92-2.41-1.93-4-3.17A99.85,99.85,0,0,1,176,310.42c2.53-.76,5.1-1.36,7.64-2.05,3.62-1,4.13-1.75,3.78-5.65,3.05-1.61,3.34.72,3.81,2.7,3.3,14,2.63,27.87-.88,41.67-3,11.92-6.21,14.78-18.87,16.41-18,2.33-35.64-.39-53.18-4.08a3.9,3.9,0,0,1-2.33-2.54,210.15,210.15,0,0,1-5-63.59,121.28,121.28,0,0,1,1.58-13,123,123,0,0,0,23.19,42.25c-4.4,5.56-8.78,10.63-12.61,16.1-2.09,3-3.3,6.61-4.81,10-1,2.34-.5,4.42,2,5.31s4-.65,4.79-3C128.27,342,133.94,334.89,141.19,328.53Z" transform="translate(-103.24 -105.24)"/>

<path class="cls-1" d="M123.74,279.21c14.2,15.13,31.82,21.71,52.69,23.18-6.17,2.33-11.49,4.06-16.57,6.32s-10.22,5.15-15.42,7.8C137.58,311.13,125.22,289.24,123.74,279.21Z" transform="translate(-103.24 -105.24)"/></svg>