<svg id="Layer_1" data-name="Layer 1" xmlns="http://www.w3.org/2000/svg" viewBox="0 0 156.96 155.16"><defs><style>.cls-1{fill:#fff;}</style></defs><title>ParkPlace</title><path class="cls-1" d="M97.12,225.05V69.89h157V225.05ZM177,217.87c.39-.92.65-1.58.94-2.22,7-15.2,13.81-30.44,20.91-45.56a29.54,29.54,0,0,0,2.66-14.32c-.48-10.07-5.76-17-15.08-19.87a39.37,39.37,0,0,0-15.31-1.36,27.1,27.1,0,0,0-12.56,3.93c-8.25,5.41-11.88,19.52-7.53,29.17q11.29,25.07,22.59,50.13a6,6,0,0,1,.61,1.85c.28,2.74.88,3.38,3.58,3.24A92.55,92.55,0,0,0,208.67,216c19.94-8.25,33.82-22.24,39.85-43.21a90.69,90.69,0,0,0,0-50.26A62.55,62.55,0,0,0,225.29,88.6,79.44,79.44,0,0,0,198,75.68c-7.43-2-15-3.64-22.7-3.13A108.34,108.34,0,0,0,157,75.37c-13.15,3.16-25,9.06-34.75,18.63-12.56,12.31-18.3,27.69-19.73,44.91-.32,3.82-.07,7.69-.48,11.49-.56,5.29-1.77,10.53-2.2,15.83a100.89,100.89,0,0,0,3,34.59,3.24,3.24,0,0,0,2,1.91c8.37,2,16.85,3.29,25.47,2.74a42.85,42.85,0,0,0,9.79-2,7.8,7.8,0,0,0,5.64-6.2c.6-3,1.51-5.93,2-8.94a41.94,41.94,0,0,0-1.43-19.2,2.42,2.42,0,0,0-2.72-2A74.26,74.26,0,0,1,132.8,167c-10.4-1.25-18.76-6-24.07-15.29a11,11,0,0,1-1.43-5.41,106.58,106.58,0,0,1,1-13.25c1.93-12.81,6.86-24.29,15.84-33.82,7.66-8.12,17-13.54,27.52-17.09,8.85-3,17.93-5.07,27.33-4.58a83.45,83.45,0,0,1,28.72,6.77c18,7.76,30.47,20.66,36,39.75a87.81,87.81,0,0,1,2.64,33.33A67.42,67.42,0,0,1,238,184.9c-7.77,13.53-19.55,22.13-33.93,27.5A89.44,89.44,0,0,1,177,217.87Zm14.44-101.64c-2.39-3.22-4.54-6.1-6.93-9.3H190l-7.64-10.17h5.41L177,82.86,165.08,97h6L163,107h5.64l-7.49,9.3h13.38c0,2.31,0,4.45,0,6.6,0,1.93.94,3.09,2.46,3.13s2.56-1.17,2.57-3.2,0-4.28,0-6.61Zm-52.87,14.43c0,2.24,0,4.32,0,6.41s.95,3.41,2.57,3.37,2.45-1.22,2.46-3.32,0-4.26,0-6.59h11.77l-6.9-9.23H154l-7.55-10.08h5.4L141,97.26l-11.91,14.08h6L127,121.42h5.6l-7.39,9.24Zm89.81-2.11a2.59,2.59,0,0,1,.42.32c3.34,3.42,7.57,4.44,12.14,4.36.57,0,1.12-.78,1.67-1.2a7.76,7.76,0,0,0-1.59-1.55c-.47-.26-1.17,0-1.77-.12-4.29-.47-8.11-1.67-10-6.14-.19-.46-1.14-1-1.49-.89a2.42,2.42,0,0,0-1.23,1.5c-.7,2.66-2.2,3.76-5.26,3.79-2.38,0-5-1.35-5.13-3.76,0-.56-.87-1.09-1.33-1.63-.51.55-1.29,1-1.47,1.67-.71,2.55-2.31,3.74-5.36,3.71s-4.44-1.23-5.06-3.79c-.14-.59-.73-1.39-1.22-1.48s-1.15.57-1.57,1c-.9,1-1.53,2.32-2.56,3.14a14,14,0,0,1-8.89,2.88c-1.11,0-2.19.25-2.11,1.6s1.14,1.31,2.17,1.28a17.53,17.53,0,0,0,12.3-4.88c4.48,4,8.9,4.16,13.68.55A9.77,9.77,0,0,0,228.33,128.55Z" transform="translate(-97.12 -69.89)"/><path d="M177,217.87a89.44,89.44,0,0,0,27.14-5.47c14.38-5.37,26.16-14,33.93-27.5a67.42,67.42,0,0,0,8.38-27.47,87.81,87.81,0,0,0-2.64-33.33c-5.54-19.09-18-32-36-39.75A83.45,83.45,0,0,0,179,77.58c-9.4-.49-18.48,1.58-27.33,4.58-10.49,3.55-19.86,9-27.52,17.09-9,9.53-13.91,21-15.84,33.82a106.58,106.58,0,0,0-1,13.25,11,11,0,0,0,1.43,5.41C114,161,122.4,165.77,132.8,167a74.26,74.26,0,0,0,10.76.09,2.42,2.42,0,0,1,2.72,2,41.94,41.94,0,0,1,1.43,19.2c-.45,3-1.36,5.95-2,8.94a7.8,7.8,0,0,1-5.64,6.2,42.85,42.85,0,0,1-9.79,2c-8.62.55-17.1-.78-25.47-2.74a3.24,3.24,0,0,1-2-1.91,100.89,100.89,0,0,1-3-34.59c.43-5.3,1.64-10.54,2.2-15.83.41-3.8.16-7.67.48-11.49,1.43-17.22,7.17-32.6,19.73-44.91,9.76-9.57,21.6-15.47,34.75-18.63a108.34,108.34,0,0,1,18.26-2.82c7.7-.51,15.27,1.12,22.7,3.13A79.44,79.44,0,0,1,225.29,88.6a62.55,62.55,0,0,1,23.26,33.94,90.69,90.69,0,0,1,0,50.26c-6,21-19.91,35-39.85,43.21a92.55,92.55,0,0,1-30.91,6.85c-2.7.14-3.3-.5-3.58-3.24a6,6,0,0,0-.61-1.85Q162.29,192.69,151,167.64c-4.35-9.65-.72-23.76,7.53-29.17a27.1,27.1,0,0,1,12.56-3.93,39.37,39.37,0,0,1,15.31,1.36c9.32,2.83,14.6,9.8,15.08,19.87a29.54,29.54,0,0,1-2.66,14.32c-7.1,15.12-14,30.36-20.91,45.56C177.6,216.29,177.34,217,177,217.87Zm17.88-60.1c0-.42-.07-1.2-.14-2a7.31,7.31,0,0,0-.22-1.24c-1.8-7.18-6.5-11.68-13.45-13.58-7.35-2-14.11-.43-19.51,5.08a16.88,16.88,0,0,0,0,24.08,19.63,19.63,0,0,0,12,5.82C184.68,177.33,194.71,168.94,194.83,157.77ZM118.5,184.1a26.61,26.61,0,0,0-8,11.22c-.4,1.18-1.1,2-2.39,1.5a1.76,1.76,0,0,1-1-2.65,29.2,29.2,0,0,1,2.41-5c1.91-2.73,4.1-5.27,6.3-8A61.6,61.6,0,0,1,104.21,160a59,59,0,0,0-.79,6.48,105.29,105.29,0,0,0,2.48,31.8,1.94,1.94,0,0,0,1.17,1.26c8.77,1.85,17.6,3.21,26.59,2,6.33-.81,7.92-2.24,9.43-8.2a43.06,43.06,0,0,0,.44-20.83c-.23-1-.38-2.16-1.9-1.36.17,1.95-.08,2.34-1.89,2.83-1.27.34-2.56.64-3.82,1a49.89,49.89,0,0,0-13.54,6.14c.77.61,1.35,1.12,2,1.58q6.21,4.58,12.45,9.14c1.73,1.26,2.18,2.6,1.28,3.93s-2.24,1.4-4.07.28A77.64,77.64,0,0,1,118.5,184.1Zm-8.73-24.66c.74,5,6.92,16,10.35,18.65,2.6-1.33,5.1-2.74,7.71-3.9s5.2-2,8.29-3.16C125.68,170.29,116.87,167,109.77,159.44Z" transform="translate(-97.12 -69.89)"/><path d="M191.39,116.23H179.56c0,2.33,0,4.47,0,6.61s-1,3.24-2.57,3.2-2.45-1.2-2.46-3.13c0-2.15,0-4.29,0-6.6H161.14l7.49-9.3H163l8.07-10h-6l12-14.14,10.71,13.9h-5.41L190,106.93h-5.52C186.85,110.13,189,113,191.39,116.23Z" transform="translate(-97.12 -69.89)"/><path d="M138.52,130.66H125.21l7.39-9.24H127l8.1-10.08h-6L141,97.26l10.76,14h-5.4L154,121.3h-5.52l6.9,9.23H143.56c0,2.33,0,4.46,0,6.59s-.89,3.28-2.46,3.32-2.57-1.19-2.57-3.37S138.52,132.9,138.52,130.66Z" transform="translate(-97.12 -69.89)"/><path d="M228.33,128.55a9.77,9.77,0,0,1-13.63.41c-4.78,3.61-9.2,3.46-13.68-.55a17.53,17.53,0,0,1-12.3,4.88c-1,0-2.1,0-2.17-1.28s1-1.59,2.11-1.6a14,14,0,0,0,8.89-2.88c1-.82,1.66-2.13,2.56-3.14.42-.48,1.12-1.13,1.57-1s1.08.89,1.22,1.48c.62,2.56,2.12,3.75,5.06,3.79s4.65-1.16,5.36-3.71c.18-.65,1-1.12,1.47-1.67.46.54,1.31,1.07,1.33,1.63.1,2.41,2.75,3.78,5.13,3.76,3.06,0,4.56-1.13,5.26-3.79a2.42,2.42,0,0,1,1.23-1.5c.35-.14,1.3.43,1.49.89,1.86,4.47,5.68,5.67,10,6.14.6.07,1.3-.14,1.77.12a7.76,7.76,0,0,1,1.59,1.55c-.55.42-1.1,1.2-1.67,1.2-4.57.08-8.8-.94-12.14-4.36A2.59,2.59,0,0,0,228.33,128.55Z" transform="translate(-97.12 -69.89)"/><path class="cls-1" d="M194.83,157.77c-.12,11.17-10.15,19.56-21.26,18.19a19.63,19.63,0,0,1-12-5.82,16.88,16.88,0,0,1,0-24.08c5.4-5.51,12.16-7.1,19.51-5.08,6.95,1.9,11.65,6.4,13.45,13.58a7.31,7.31,0,0,1,.22,1.24C194.76,156.57,194.8,157.35,194.83,157.77Z" transform="translate(-97.12 -69.89)"/><path class="cls-1" d="M118.5,184.1a77.64,77.64,0,0,0,15.51,12c1.83,1.12,3.15,1.08,4.07-.28s.45-2.67-1.28-3.93q-6.24-4.56-12.45-9.14c-.62-.46-1.2-1-2-1.58A49.89,49.89,0,0,1,135.92,175c1.26-.38,2.55-.68,3.82-1,1.81-.49,2.06-.88,1.89-2.83,1.52-.8,1.67.36,1.9,1.36a43.06,43.06,0,0,1-.44,20.83c-1.51,6-3.1,7.39-9.43,8.2-9,1.17-17.82-.19-26.59-2a1.94,1.94,0,0,1-1.17-1.26,105.29,105.29,0,0,1-2.48-31.8,59,59,0,0,1,.79-6.48,61.6,61.6,0,0,0,11.59,21.12c-2.2,2.78-4.39,5.32-6.3,8a29.2,29.2,0,0,0-2.41,5,1.76,1.76,0,0,0,1,2.65c1.29.47,2-.32,2.39-1.5A26.61,26.61,0,0,1,118.5,184.1Z" transform="translate(-97.12 -69.89)"/><path class="cls-1" d="M109.77,159.44c7.1,7.57,15.91,10.85,26.35,11.59-3.09,1.16-5.75,2-8.29,3.16s-5.11,2.57-7.71,3.9C116.69,175.4,110.51,164.46,109.77,159.44Z" transform="translate(-97.12 -69.89)"/></svg>